Walking07_kinetics.mot
version=1
nRows=32
nColumns=19
inDegrees=yes
endheader
time	1_ground_force_vx	1_ground_force_vy	1_ground_force_vz	1_ground_force_px	1_ground_force_py	1_ground_force_pz	2_ground_force_vx	2_ground_force_vy	2_ground_force_vz	2_ground_force_px	2_ground_force_py	2_ground_force_pz	1_ground_torque_x	1_ground_torque_y	1_ground_torque_z	2_ground_torque_x	2_ground_torque_y	2_ground_torque_z
  0.73500000	  0.00000000	  0.00000000	  0.00000000	 -0.30048871	 -0.00042294	  0.20058549	-24.42492717	474.56392290	 21.74139910	  0.45637077	  0.00267472	  0.03408822	  0.00000000	  0.00000000	  0.00000000	  0.00018229	 -0.13987597	  0.00000462
  0.73600000	  0.00000000	  0.00000000	  0.00000000	 -0.30048871	 -0.00042294	  0.20058549	-23.99909802	472.91383977	 21.53120993	  0.45690147	  0.00267541	  0.03414274	  0.00000000	  0.00000000	  0.00000000	  0.00019063	 -0.14627713	  0.00000483
  0.73700000	  0.00000000	  0.00000000	  0.00000000	 -0.30048871	 -0.00042294	  0.20058549	-23.57135401	471.30806607	 21.30897187	  0.45742162	  0.00267609	  0.03419275	  0.00000000	  0.00000000	  0.00000000	  0.00020269	 -0.15553413	  0.00000514
  0.73800000	  0.00000000	  0.00000000	  0.00000000	 -0.30048871	 -0.00042294	  0.20058549	-23.14526953	469.74812880	 21.07688293	  0.45793317	  0.00267676	  0.03423668	  0.00000000	  0.00000000	  0.00000000	  0.00021691	 -0.16644596	  0.00000550
  0.73900000	  0.00000000	  0.00000000	  0.00000000	 -0.30048871	 -0.00042294	  0.20058549	-22.72160709	468.24602639	 20.83526402	  0.45843325	  0.00267741	  0.03426988	  0.00000000	  0.00000000	  0.00000000	  0.00023278	 -0.17861964	  0.00000590
  0.74000000	  0.00000000	  0.00000000	  0.00000000	 -0.30048871	 -0.00042294	  0.20058549	-22.29758916	466.82376722	 20.58222955	  0.45891439	  0.00267804	  0.03428463	  0.00000000	  0.00000000	  0.00000000	  0.00025117	 -0.19273535	  0.00000637
  0.74100000	  0.00000000	  0.00000000	  0.00000000	 -0.30048871	 -0.00042294	  0.20058549	-21.86698586	465.51120097	 20.31422968	  0.45936650	  0.00267863	  0.03427095	  0.00000000	  0.00000000	  0.00000000	  0.00027426	 -0.21044832	  0.00000695
  0.74200000	  0.00000000	  0.00000000	  0.00000000	 -0.30048871	 -0.00042294	  0.20058549	-21.42126998	464.34061617	 20.02739810	  0.45977938	  0.00267917	  0.03421859	  0.00000000	  0.00000000	  0.00000000	  0.00030492	 -0.23398034	  0.00000773
  0.74300000	  0.00000000	  0.00000000	  0.00000000	 -0.30048871	 -0.00042294	  0.20058549	-20.95182158	463.33783676	 19.71949972	  0.46014514	  0.00267964	  0.03412029	  0.00000000	  0.00000000	  0.00000000	  0.00034597	 -0.26547586	  0.00000877
  0.74400000	  0.00000000	  0.00000000	  0.00000000	 -0.30048871	 -0.00042294	  0.20058549	-20.45212529	462.51403438	 19.39173564	  0.46045972	  0.00268005	  0.03397482	  0.00000000	  0.00000000	  0.00000000	  0.00039918	 -0.30631023	  0.00001012
  0.74500000	  0.00000000	  0.00000000	  0.00000000	 -0.30048871	 -0.00042294	  0.20058549	-19.91861493	461.86381940	 19.04950371	  0.46072326	  0.00268038	  0.03378747	  0.00000000	  0.00000000	  0.00000000	  0.00046468	 -0.35656601	  0.00001178
  0.74600000	  0.00000000	  0.00000000	  0.00000000	 -0.30048871	 -0.00042294	  0.20058549	-19.35003745	461.36987001	 18.70200342	  0.46093911	  0.00268066	  0.03356799	  0.00000000	  0.00000000	  0.00000000	  0.00054054	 -0.41477772	  0.00001370
  0.74700000	  0.00000000	  0.00000000	  0.00000000	 -0.30048871	 -0.00042294	  0.20058549	-18.74625073	461.00939297	 18.36126005	  0.46111233	  0.00268087	  0.03332785	  0.00000000	  0.00000000	  0.00000000	  0.00062298	 -0.47803985	  0.00001579
  0.74800000	  0.00000000	  0.00000000	  0.00000000	 -0.30048871	 -0.00042294	  0.20058549	-18.10727543	460.75856518	 18.04109902	  0.46124820	  0.00268104	  0.03307814	  0.00000000	  0.00000000	  0.00000000	  0.00070698	 -0.54249531	  0.00001792
  0.74900000	  0.00000000	  0.00000000	  0.00000000	 -0.30048871	 -0.00042294	  0.20058549	-17.43315591	460.59373952	 17.75653066	  0.46135177	  0.00268117	  0.03282850	  0.00000000	  0.00000000	  0.00000000	  0.00078699	 -0.60389166	  0.00001995
  0.75000000	  0.00000000	  0.00000000	  0.00000000	 -0.30048871	 -0.00042294	  0.20058549	-16.72510063	460.48899748	 17.52397222	  0.46142926	  0.00268126	  0.03258703	  0.00000000	  0.00000000	  0.00000000	  0.00085726	 -0.65781145	  0.00002173
  0.75100000	  0.00000000	  0.00000000	  0.00000000	 -0.30048871	 -0.00042294	  0.20058549	-15.98743147	460.41181082	 17.36185809	  0.46149070	  0.00268134	  0.03236079	  0.00000000	  0.00000000	  0.00000000	  0.00091175	 -0.69962254	  0.00002312
  0.75200000	  0.00000000	  0.00000000	  0.00000000	 -0.30048871	 -0.00042294	  0.20058549	-15.22845821	460.32235870	 17.28996804	  0.46155067	  0.00268141	  0.03215625	  0.00000000	  0.00000000	  0.00000000	  0.00094436	 -0.72464995	  0.00002394
  0.75300000	  0.00000000	  0.00000000	  0.00000000	 -0.30048871	 -0.00042294	  0.20058549	-14.45906567	460.17999499	 17.32640958	  0.46162533	  0.00268150	  0.03197906	  0.00000000	  0.00000000	  0.00000000	  0.00094988	 -0.72888178	  0.00002408
  0.75400000	  0.00000000	  0.00000000	  0.00000000	 -0.30048871	 -0.00042294	  0.20058549	-13.69030017	459.95279228	 17.48338915	  0.46172793	  0.00268163	  0.03183347	  0.00000000	  0.00000000	  0.00000000	  0.00092508	 -0.70985764	  0.00002345
  0.75500000	  0.00000000	  0.00000000	  0.00000000	 -0.30048871	 -0.00042294	  0.20058549	-12.93191593	459.62400045	 17.76353767	  0.46186652	  0.00268180	  0.03172186	  0.00000000	  0.00000000	  0.00000000	  0.00086948	 -0.66719343	  0.00002204
  0.75600000	  0.00000000	  0.00000000	  0.00000000	 -0.30048871	 -0.00042294	  0.20058549	-12.19226253	459.19402438	 18.15738302	  0.46204427	  0.00268203	  0.03164454	  0.00000000	  0.00000000	  0.00000000	  0.00078540	 -0.60267173	  0.00001991
  0.75700000	  0.00000000	  0.00000000	  0.00000000	 -0.30048871	 -0.00042294	  0.20058549	-11.47877554	458.67965852	 18.64207600	  0.46226049	  0.00268231	  0.03159964	  0.00000000	  0.00000000	  0.00000000	  0.00067794	 -0.52021448	  0.00001719
  0.75800000	  0.00000000	  0.00000000	  0.00000000	 -0.30048871	 -0.00042294	  0.20058549	-10.79837834	458.11188871	 19.18182876	  0.46251113	  0.00268264	  0.03158315	  0.00000000	  0.00000000	  0.00000000	  0.00055502	 -0.42588993	  0.00001407
  0.75900000	  0.00000000	  0.00000000	  0.00000000	 -0.30048871	 -0.00042294	  0.20058549	-10.15722532	457.53275547	 19.73112133	  0.46278855	  0.00268300	  0.03158895	  0.00000000	  0.00000000	  0.00000000	  0.00042697	 -0.32763530	  0.00001082
  0.76000000	  0.00000000	  0.00000000	  0.00000000	 -0.30048871	 -0.00042294	  0.20058549	 -9.55926080	456.99135990	 20.24208456	  0.46308117	  0.00268338	  0.03160907	  0.00000000	  0.00000000	  0.00000000	  0.00030523	 -0.23421347	  0.00000774
  0.76100000	  0.00000000	  0.00000000	  0.00000000	 -0.30048871	 -0.00042294	  0.20058549	 -9.00422986	456.53833348	 20.67479679	  0.46337375	  0.00268377	  0.03163432	  0.00000000	  0.00000000	  0.00000000	  0.00020004	 -0.15349951	  0.00000507
  0.76200000	  0.00000000	  0.00000000	  0.00000000	 -0.30048871	 -0.00042294	  0.20058549	 -8.48762016	456.21695732	 21.00496800	  0.46364993	  0.00268413	  0.03165604	  0.00000000	  0.00000000	  0.00000000	  0.00011849	 -0.09092535	  0.00000300
  0.76300000	  0.00000000	  0.00000000	  0.00000000	 -0.30048871	 -0.00042294	  0.20058549	 -8.00389916	456.05098069	 21.22505370	  0.46389783	  0.00268445	  0.03166910	  0.00000000	  0.00000000	  0.00000000	  0.00006352	 -0.04874453	  0.00000161
  0.76400000	  0.00000000	  0.00000000	  0.00000000	 -0.30048871	 -0.00042294	  0.20058549	 -7.55034902	456.03549732	 21.34083302	  0.46411489	  0.00268473	  0.03167433	  0.00000000	  0.00000000	  0.00000000	  0.00003405	 -0.02612748	  0.00000086
  0.76500000	  0.00000000	  0.00000000	  0.00000000	 -0.30048871	 -0.00042294	  0.20058549	 -7.12766972	456.13922703	 21.36699953	  0.46430756	  0.00268498	  0.03167794	  0.00000000	  0.00000000	  0.00000000	  0.00002599	 -0.01994583	  0.00000066
  0.76600000	  0.00000000	  0.00000000	  0.00000000	 -0.30048871	 -0.00042294	  0.20058549	 -6.73718119	456.31766880	 21.32307681	  0.46448576	  0.00268522	  0.03168795	  0.00000000	  0.00000000	  0.00000000	  0.00003391	 -0.02601798	  0.00000086
